<?xml version="1.0" standalone="no"?>
<!DOCTYPE svg PUBLIC "-//W3C//DTD SVG 20010904//EN"
 "http://www.w3.org/TR/2001/REC-SVG-20010904/DTD/svg10.dtd">
<svg version="1.0" xmlns="http://www.w3.org/2000/svg"
 width="1173.000000pt" height="720.000000pt" viewBox="0 0 1173.000000 720.000000"
 preserveAspectRatio="xMidYMid meet">

<g transform="translate(0.000000,720.000000) scale(0.100000,-0.100000)"
fill="#000000" stroke="none">
<path d="M1718 4703 c-17 -4 -18 -72 -18 -1243 0 -1123 1 -1238 16 -1244 20
-8 8283 -8 8295 0 5 3 9 517 9 1244 0 1119 -2 1238 -16 1244 -18 7 -8260 6
-8286 -1z m2367 -1248 l0 -1160 -1120 -3 c-616 -1 -1130 0 -1142 3 l-23 5 0
1144 c0 630 3 1152 6 1160 6 15 113 16 1143 14 l1136 -3 0 -1160z m3170 599
c21 -9 57 -80 53 -107 -3 -24 -31 -34 -98 -36 -94 -2 -84 11 -206 -277 -83
-196 -153 -393 -163 -464 -6 -40 -9 -45 -31 -42 -31 3 -90 64 -90 93 0 57 128
371 231 566 27 51 49 95 49 97 0 14 -44 13 -142 -3 -126 -21 -159 -32 -203
-65 -16 -13 -36 -21 -43 -19 -21 8 -53 82 -50 116 5 52 68 68 318 76 200 7
207 8 275 39 80 35 78 34 100 26z m1344 -28 c12 -18 24 -47 27 -64 6 -28 3
-33 -20 -42 -15 -5 -53 -10 -85 -10 -44 0 -62 -5 -75 -19 -9 -10 -43 -81 -76
-157 -33 -76 -64 -148 -69 -159 -6 -11 -16 -36 -24 -55 -8 -19 -20 -48 -27
-65 -27 -65 -78 -233 -85 -277 -9 -60 -28 -67 -74 -30 -53 43 -58 66 -32 148
33 99 113 288 192 449 37 77 65 143 60 148 -10 10 -198 -18 -260 -38 -24 -8
-59 -27 -79 -41 l-35 -27 -16 22 c-10 13 -24 42 -33 66 -16 42 -16 44 5 62 39
35 105 46 312 52 196 7 201 7 270 38 39 17 78 32 87 32 9 1 26 -14 37 -33z
m-2937 -33 c24 -22 23 -30 -16 -115 -32 -69 -64 -153 -101 -263 -9 -27 -21
-58 -26 -67 -5 -10 -9 -25 -9 -34 0 -18 21 7 100 116 69 96 94 106 154 59 31
-24 32 -46 7 -102 -35 -79 -91 -236 -91 -257 0 -62 89 62 126 175 35 107 80
190 123 226 42 34 64 36 109 9 42 -26 60 -25 81 1 17 22 18 22 64 4 56 -21 60
-40 23 -113 -23 -46 -79 -217 -91 -279 -19 -94 71 21 116 147 48 138 116 244
164 256 42 11 147 -74 161 -131 8 -33 -26 -104 -70 -142 -55 -49 -89 -39 -61
17 17 34 46 143 39 149 -21 22 -97 -108 -134 -230 -41 -136 -37 -194 13 -181
12 3 75 58 140 124 64 65 119 118 122 118 25 0 -36 -127 -108 -224 -53 -72
-117 -126 -149 -126 -44 0 -127 61 -155 113 -8 16 -14 12 -52 -33 -23 -27 -50
-50 -60 -50 -19 0 -72 51 -90 88 -14 26 -29 28 -38 5 -16 -42 -66 -112 -83
-118 -28 -9 -77 23 -95 62 -22 45 -30 47 -55 13 -34 -48 -53 -54 -100 -30 -64
33 -75 58 -61 138 7 37 15 81 18 97 l4 30 -20 -25 c-12 -14 -49 -79 -82 -145
-34 -66 -65 -124 -70 -129 -11 -12 -55 28 -75 67 -13 24 -13 37 0 100 32 160
102 381 177 566 54 131 64 145 102 137 17 -3 39 -14 49 -23z m-544 -36 c13
-12 32 -36 43 -54 21 -34 21 -63 -7 -318 l-5 -50 21 40 c12 22 44 96 71 165
57 142 106 239 130 253 21 13 109 -36 109 -59 0 -9 -16 -41 -35 -72 -68 -112
-193 -430 -263 -672 -16 -55 -23 -65 -43 -68 -13 -1 -39 7 -56 18 l-33 20 0
92 c0 111 17 459 26 541 7 57 6 59 -13 46 -32 -19 -183 -396 -249 -618 -19
-63 -36 -116 -38 -119 -9 -8 -67 40 -81 69 -14 25 -14 36 -2 82 42 158 266
661 322 721 21 23 27 25 52 15 15 -6 38 -20 51 -32z m2527 -207 c21 0 45 -29
38 -46 -3 -9 6 -4 22 10 39 37 76 34 113 -8 17 -19 33 -43 36 -53 5 -16 -10
-112 -30 -195 -9 -37 5 -35 56 7 45 38 60 43 60 21 0 -25 -45 -80 -120 -145
-41 -35 -80 -73 -86 -83 -5 -11 -30 -39 -53 -63 -36 -37 -50 -45 -80 -45 -20
0 -47 7 -59 16 -17 12 -26 13 -36 5 -12 -10 -45 -134 -64 -241 -6 -37 -12 -46
-31 -48 -28 -4 -71 33 -71 62 0 27 78 340 121 483 18 62 30 115 28 118 -3 3
-19 0 -36 -5 -28 -10 -32 -18 -48 -88 -22 -98 -83 -226 -129 -274 -61 -63
-110 -63 -179 1 -37 35 -41 43 -45 97 -8 112 44 284 115 380 46 62 74 84 119
91 31 5 39 1 72 -34 21 -22 46 -57 56 -77 16 -34 20 -37 49 -30 51 11 61 19
82 74 21 54 50 84 73 75 8 -3 20 -5 27 -5z m1348 -12 c9 -5 17 -16 17 -25 0
-14 4 -13 23 5 34 32 67 28 108 -14 31 -32 34 -40 33 -92 -1 -31 -9 -82 -18
-111 -23 -77 -8 -87 49 -31 38 37 45 41 51 26 4 -10 1 -28 -6 -42 -13 -24
-116 -126 -155 -155 -11 -7 -36 -34 -55 -59 -70 -93 -116 -111 -181 -73 -15 9
-31 14 -34 11 -7 -7 -32 -104 -54 -208 -15 -74 -21 -85 -40 -88 -12 -2 -29 2
-38 9 -28 24 -32 54 -16 130 27 135 33 156 97 376 40 137 43 153 21 153 -24 0
-65 -46 -65 -73 0 -71 -75 -238 -132 -297 -66 -67 -113 -66 -184 5 -44 44 -44
45 -44 117 0 39 5 88 11 107 6 20 18 56 26 81 42 134 128 246 196 257 34 5 41
2 78 -37 23 -24 45 -56 51 -71 12 -35 32 -42 75 -28 33 11 63 51 63 84 0 9 11
27 25 41 25 25 52 26 98 2z"/>
<path d="M2509 4230 c-53 -9 -106 -46 -134 -94 l-25 -43 0 -599 0 -599 23 -40
c51 -89 159 -127 250 -87 32 14 48 28 52 45 13 51 -38 92 -83 68 -27 -14 -73
-13 -93 2 -38 29 -39 41 -39 617 l0 562 29 29 c53 53 14 72 646 -319 187 -115
348 -221 359 -235 14 -19 17 -34 12 -61 -8 -43 8 -31 -376 -266 -334 -205
-320 -195 -320 -230 0 -42 40 -68 77 -51 52 24 648 393 677 420 38 35 56 80
56 143 0 61 -28 125 -67 155 -25 17 -427 268 -796 495 -133 81 -182 99 -248
88z"/>
<path d="M5993 3617 c-39 -57 -123 -283 -123 -330 0 -21 0 -21 20 -2 29 30
170 311 170 340 0 38 -39 34 -67 -8z"/>
<path d="M7661 3541 c-70 -121 -124 -240 -117 -257 8 -21 39 -17 66 8 25 23
65 106 98 203 54 160 31 183 -47 46z"/>
<path d="M7258 3579 c-28 -40 -79 -208 -85 -277 -6 -63 -6 -64 18 -60 19 2 33
21 66 87 55 109 66 159 42 186 -10 11 -19 36 -21 55 l-3 35 -17 -26z"/>
<path d="M9014 3593 c-84 -130 -162 -299 -145 -316 22 -22 75 17 103 75 55
112 104 288 80 288 -4 0 -21 -21 -38 -47z"/>
<path d="M8572 3574 c-17 -32 -60 -166 -71 -222 -17 -81 -15 -112 8 -112 26 0
72 76 106 173 l28 78 -22 22 c-11 13 -21 30 -21 38 0 8 -4 20 -9 28 -7 11 -11
10 -19 -5z"/>
</g>
</svg>
