<?xml version="1.0" standalone="no"?>
<!DOCTYPE svg PUBLIC "-//W3C//DTD SVG 20010904//EN"
 "http://www.w3.org/TR/2001/REC-SVG-20010904/DTD/svg10.dtd">
<svg version="1.0" xmlns="http://www.w3.org/2000/svg"
 width="554.000000pt" height="362.000000pt" viewBox="0 0 554.000000 362.000000"
 preserveAspectRatio="xMidYMid meet">

<g transform="translate(0.000000,362.000000) scale(0.100000,-0.100000)"
fill="#000000" stroke="none">
<path d="M2015 3313 c-104 -32 -200 -116 -247 -218 l-23 -50 0 -1160 0 -1160
31 -65 c71 -150 225 -241 382 -226 68 6 162 43 199 78 47 44 38 129 -17 168
-36 25 -76 25 -131 0 -52 -23 -109 -26 -147 -6 -41 21 -81 68 -92 107 -6 21
-10 436 -10 1109 0 1027 1 1077 19 1116 29 63 72 89 151 89 64 -1 67 -2 210
-91 80 -50 234 -145 342 -212 108 -66 279 -172 380 -235 213 -132 453 -281
692 -428 93 -57 184 -118 202 -134 42 -40 58 -99 43 -158 -18 -73 -6 -64 -534
-387 -60 -37 -186 -114 -280 -172 -93 -57 -242 -148 -330 -202 -182 -112 -215
-140 -215 -191 0 -71 41 -116 109 -117 31 0 76 23 262 137 123 75 251 154 284
175 33 21 161 100 285 175 549 335 557 341 613 455 29 59 32 73 32 160 0 78
-5 107 -25 159 -39 98 -95 149 -320 288 -107 66 -280 174 -385 238 -104 65
-235 146 -290 180 -55 34 -194 120 -310 192 -206 128 -344 213 -517 319 -48
29 -110 60 -139 68 -65 20 -159 19 -224 -1z"/>
</g>
</svg>
